<mxfile host="app.diagrams.net" modified="2022-06-11T17:59:52.709Z" agent="5.0 (Windows NT 10.0; Win64; x64) AppleWebKit/537.36 (KHTML, like Gecko) Chrome/102.0.5005.63 Safari/537.36 Edg/102.0.1245.33" etag="8_cVdc9bqk8NtWrNwkcp" version="19.0.3" type="github">
  <diagram id="GS4NjSUJhHlFv-XAtIjA" name="Page-1">
    <mxGraphModel dx="521" dy="329" grid="1" gridSize="10" guides="1" tooltips="1" connect="1" arrows="1" fold="1" page="1" pageScale="1" pageWidth="827" pageHeight="1169" math="0" shadow="0">
      <root>
        <mxCell id="0" />
        <mxCell id="1" parent="0" />
        <mxCell id="93Pf0BwEEPynUzrRqr7O-21" value=" " style="swimlane;fontStyle=0;childLayout=stackLayout;horizontal=1;startSize=26;fillColor=none;horizontalStack=0;resizeParent=1;resizeParentMax=0;resizeLast=0;collapsible=1;marginBottom=0;" parent="1" vertex="1">
          <mxGeometry x="202" y="526" width="360" height="104" as="geometry" />
        </mxCell>
        <mxCell id="93Pf0BwEEPynUzrRqr7O-22" value=" " style="text;strokeColor=none;fillColor=none;align=left;verticalAlign=top;spacingLeft=4;spacingRight=4;overflow=hidden;rotatable=0;points=[[0,0.5],[1,0.5]];portConstraint=eastwest;" parent="93Pf0BwEEPynUzrRqr7O-21" vertex="1">
          <mxGeometry y="26" width="360" height="26" as="geometry" />
        </mxCell>
        <mxCell id="93Pf0BwEEPynUzrRqr7O-23" value=" " style="text;strokeColor=none;fillColor=none;align=left;verticalAlign=top;spacingLeft=4;spacingRight=4;overflow=hidden;rotatable=0;points=[[0,0.5],[1,0.5]];portConstraint=eastwest;" parent="93Pf0BwEEPynUzrRqr7O-21" vertex="1">
          <mxGeometry y="52" width="360" height="26" as="geometry" />
        </mxCell>
        <mxCell id="93Pf0BwEEPynUzrRqr7O-24" value=" " style="text;strokeColor=none;fillColor=none;align=left;verticalAlign=top;spacingLeft=4;spacingRight=4;overflow=hidden;rotatable=0;points=[[0,0.5],[1,0.5]];portConstraint=eastwest;" parent="93Pf0BwEEPynUzrRqr7O-21" vertex="1">
          <mxGeometry y="78" width="360" height="26" as="geometry" />
        </mxCell>
        <mxCell id="93Pf0BwEEPynUzrRqr7O-1" value=" " style="swimlane;fontStyle=0;childLayout=stackLayout;horizontal=1;startSize=26;fillColor=none;horizontalStack=0;resizeParent=1;resizeParentMax=0;resizeLast=0;collapsible=1;marginBottom=0;" parent="1" vertex="1">
          <mxGeometry x="473" y="113" width="297" height="78" as="geometry" />
        </mxCell>
        <mxCell id="93Pf0BwEEPynUzrRqr7O-6" style="text;strokeColor=none;fillColor=none;align=left;verticalAlign=top;spacingLeft=4;spacingRight=4;overflow=hidden;rotatable=0;points=[[0,0.5],[1,0.5]];portConstraint=eastwest;" parent="93Pf0BwEEPynUzrRqr7O-1" vertex="1">
          <mxGeometry y="26" width="297" height="26" as="geometry" />
        </mxCell>
        <mxCell id="93Pf0BwEEPynUzrRqr7O-5" style="text;strokeColor=none;fillColor=none;align=left;verticalAlign=top;spacingLeft=4;spacingRight=4;overflow=hidden;rotatable=0;points=[[0,0.5],[1,0.5]];portConstraint=eastwest;" parent="93Pf0BwEEPynUzrRqr7O-1" vertex="1">
          <mxGeometry y="52" width="297" height="26" as="geometry" />
        </mxCell>
        <mxCell id="oU2hH9bfx2fnlEqYslfO-71" value="" style="swimlane;fontStyle=0;childLayout=stackLayout;horizontal=1;startSize=26;fillColor=none;horizontalStack=0;resizeParent=1;resizeParentMax=0;resizeLast=0;collapsible=1;marginBottom=0;" parent="1" vertex="1">
          <mxGeometry x="874" y="103" width="346" height="130" as="geometry" />
        </mxCell>
        <mxCell id="oU2hH9bfx2fnlEqYslfO-72" value=" " style="text;strokeColor=none;fillColor=none;align=left;verticalAlign=top;spacingLeft=4;spacingRight=4;overflow=hidden;rotatable=0;points=[[0,0.5],[1,0.5]];portConstraint=eastwest;" parent="oU2hH9bfx2fnlEqYslfO-71" vertex="1">
          <mxGeometry y="26" width="346" height="26" as="geometry" />
        </mxCell>
        <mxCell id="oU2hH9bfx2fnlEqYslfO-73" style="text;strokeColor=none;fillColor=none;align=left;verticalAlign=top;spacingLeft=4;spacingRight=4;overflow=hidden;rotatable=0;points=[[0,0.5],[1,0.5]];portConstraint=eastwest;" parent="oU2hH9bfx2fnlEqYslfO-71" vertex="1">
          <mxGeometry y="52" width="346" height="26" as="geometry" />
        </mxCell>
        <mxCell id="oU2hH9bfx2fnlEqYslfO-74" style="text;strokeColor=none;fillColor=none;align=left;verticalAlign=top;spacingLeft=4;spacingRight=4;overflow=hidden;rotatable=0;points=[[0,0.5],[1,0.5]];portConstraint=eastwest;" parent="oU2hH9bfx2fnlEqYslfO-71" vertex="1">
          <mxGeometry y="78" width="346" height="26" as="geometry" />
        </mxCell>
        <mxCell id="oU2hH9bfx2fnlEqYslfO-75" style="text;strokeColor=none;fillColor=none;align=left;verticalAlign=top;spacingLeft=4;spacingRight=4;overflow=hidden;rotatable=0;points=[[0,0.5],[1,0.5]];portConstraint=eastwest;" parent="oU2hH9bfx2fnlEqYslfO-71" vertex="1">
          <mxGeometry y="104" width="346" height="26" as="geometry" />
        </mxCell>
        <mxCell id="oU2hH9bfx2fnlEqYslfO-61" value="" style="swimlane;fontStyle=0;childLayout=stackLayout;horizontal=1;startSize=26;fillColor=none;horizontalStack=0;resizeParent=1;resizeParentMax=0;resizeLast=0;collapsible=1;marginBottom=0;" parent="1" vertex="1">
          <mxGeometry x="510" y="270" width="220" height="104" as="geometry" />
        </mxCell>
        <mxCell id="oU2hH9bfx2fnlEqYslfO-63" value=" " style="text;strokeColor=none;fillColor=none;align=left;verticalAlign=top;spacingLeft=4;spacingRight=4;overflow=hidden;rotatable=0;points=[[0,0.5],[1,0.5]];portConstraint=eastwest;" parent="oU2hH9bfx2fnlEqYslfO-61" vertex="1">
          <mxGeometry y="26" width="220" height="26" as="geometry" />
        </mxCell>
        <mxCell id="oU2hH9bfx2fnlEqYslfO-70" style="text;strokeColor=none;fillColor=none;align=left;verticalAlign=top;spacingLeft=4;spacingRight=4;overflow=hidden;rotatable=0;points=[[0,0.5],[1,0.5]];portConstraint=eastwest;" parent="oU2hH9bfx2fnlEqYslfO-61" vertex="1">
          <mxGeometry y="52" width="220" height="26" as="geometry" />
        </mxCell>
        <mxCell id="C2F_x1-aIkEo4wXPpq_A-2" style="text;strokeColor=none;fillColor=none;align=left;verticalAlign=top;spacingLeft=4;spacingRight=4;overflow=hidden;rotatable=0;points=[[0,0.5],[1,0.5]];portConstraint=eastwest;" parent="oU2hH9bfx2fnlEqYslfO-61" vertex="1">
          <mxGeometry y="78" width="220" height="26" as="geometry" />
        </mxCell>
        <mxCell id="oU2hH9bfx2fnlEqYslfO-58" style="edgeStyle=orthogonalEdgeStyle;rounded=0;orthogonalLoop=1;jettySize=auto;html=1;entryX=0.276;entryY=0.003;entryDx=0;entryDy=0;entryPerimeter=0;endArrow=none;endFill=0;" parent="1" source="oU2hH9bfx2fnlEqYslfO-1" target="oU2hH9bfx2fnlEqYslfO-23" edge="1">
          <mxGeometry relative="1" as="geometry" />
        </mxCell>
        <mxCell id="oU2hH9bfx2fnlEqYslfO-60" style="edgeStyle=orthogonalEdgeStyle;rounded=0;orthogonalLoop=1;jettySize=auto;html=1;endArrow=none;endFill=0;exitX=1.004;exitY=0.056;exitDx=0;exitDy=0;exitPerimeter=0;" parent="1" source="oU2hH9bfx2fnlEqYslfO-1" target="oU2hH9bfx2fnlEqYslfO-16" edge="1">
          <mxGeometry relative="1" as="geometry">
            <Array as="points">
              <mxPoint x="460" y="166" />
              <mxPoint x="460" y="166" />
            </Array>
          </mxGeometry>
        </mxCell>
        <mxCell id="oU2hH9bfx2fnlEqYslfO-1" value="Charles Dupont : Eleve" style="swimlane;fontStyle=0;childLayout=stackLayout;horizontal=1;startSize=26;fillColor=none;horizontalStack=0;resizeParent=1;resizeParentMax=0;resizeLast=0;collapsible=1;marginBottom=0;" parent="1" vertex="1">
          <mxGeometry x="210" y="150" width="200" height="260" as="geometry" />
        </mxCell>
        <mxCell id="oU2hH9bfx2fnlEqYslfO-2" value="IdUtilisateur = 123456" style="text;strokeColor=none;fillColor=none;align=left;verticalAlign=top;spacingLeft=4;spacingRight=4;overflow=hidden;rotatable=0;points=[[0,0.5],[1,0.5]];portConstraint=eastwest;" parent="oU2hH9bfx2fnlEqYslfO-1" vertex="1">
          <mxGeometry y="26" width="200" height="26" as="geometry" />
        </mxCell>
        <mxCell id="oU2hH9bfx2fnlEqYslfO-3" value="NoAVS = 123456789101" style="text;strokeColor=none;fillColor=none;align=left;verticalAlign=top;spacingLeft=4;spacingRight=4;overflow=hidden;rotatable=0;points=[[0,0.5],[1,0.5]];portConstraint=eastwest;" parent="oU2hH9bfx2fnlEqYslfO-1" vertex="1">
          <mxGeometry y="52" width="200" height="26" as="geometry" />
        </mxCell>
        <mxCell id="oU2hH9bfx2fnlEqYslfO-4" value="Nom = Dupont" style="text;strokeColor=none;fillColor=none;align=left;verticalAlign=top;spacingLeft=4;spacingRight=4;overflow=hidden;rotatable=0;points=[[0,0.5],[1,0.5]];portConstraint=eastwest;" parent="oU2hH9bfx2fnlEqYslfO-1" vertex="1">
          <mxGeometry y="78" width="200" height="26" as="geometry" />
        </mxCell>
        <mxCell id="oU2hH9bfx2fnlEqYslfO-10" value="Prenom = Charles" style="text;strokeColor=none;fillColor=none;align=left;verticalAlign=top;spacingLeft=4;spacingRight=4;overflow=hidden;rotatable=0;points=[[0,0.5],[1,0.5]];portConstraint=eastwest;" parent="oU2hH9bfx2fnlEqYslfO-1" vertex="1">
          <mxGeometry y="104" width="200" height="26" as="geometry" />
        </mxCell>
        <mxCell id="oU2hH9bfx2fnlEqYslfO-49" value="email = c.dupont@gmail.com" style="text;strokeColor=none;fillColor=none;align=left;verticalAlign=top;spacingLeft=4;spacingRight=4;overflow=hidden;rotatable=0;points=[[0,0.5],[1,0.5]];portConstraint=eastwest;" parent="oU2hH9bfx2fnlEqYslfO-1" vertex="1">
          <mxGeometry y="130" width="200" height="26" as="geometry" />
        </mxCell>
        <mxCell id="oU2hH9bfx2fnlEqYslfO-9" value="Fonction = Eleve" style="text;strokeColor=none;fillColor=none;align=left;verticalAlign=top;spacingLeft=4;spacingRight=4;overflow=hidden;rotatable=0;points=[[0,0.5],[1,0.5]];portConstraint=eastwest;" parent="oU2hH9bfx2fnlEqYslfO-1" vertex="1">
          <mxGeometry y="156" width="200" height="26" as="geometry" />
        </mxCell>
        <mxCell id="oU2hH9bfx2fnlEqYslfO-8" value="DtNaissance = 21.06.1995" style="text;strokeColor=none;fillColor=none;align=left;verticalAlign=top;spacingLeft=4;spacingRight=4;overflow=hidden;rotatable=0;points=[[0,0.5],[1,0.5]];portConstraint=eastwest;" parent="oU2hH9bfx2fnlEqYslfO-1" vertex="1">
          <mxGeometry y="182" width="200" height="26" as="geometry" />
        </mxCell>
        <mxCell id="oU2hH9bfx2fnlEqYslfO-7" value="Password = ***********" style="text;strokeColor=none;fillColor=none;align=left;verticalAlign=top;spacingLeft=4;spacingRight=4;overflow=hidden;rotatable=0;points=[[0,0.5],[1,0.5]];portConstraint=eastwest;" parent="oU2hH9bfx2fnlEqYslfO-1" vertex="1">
          <mxGeometry y="208" width="200" height="26" as="geometry" />
        </mxCell>
        <mxCell id="oU2hH9bfx2fnlEqYslfO-22" value="ListeClasse = 2b" style="text;strokeColor=none;fillColor=none;align=left;verticalAlign=top;spacingLeft=4;spacingRight=4;overflow=hidden;rotatable=0;points=[[0,0.5],[1,0.5]];portConstraint=eastwest;" parent="oU2hH9bfx2fnlEqYslfO-1" vertex="1">
          <mxGeometry y="234" width="200" height="26" as="geometry" />
        </mxCell>
        <mxCell id="oU2hH9bfx2fnlEqYslfO-11" value="Q1: Question" style="swimlane;fontStyle=0;childLayout=stackLayout;horizontal=1;startSize=26;fillColor=default;horizontalStack=0;resizeParent=1;resizeParentMax=0;resizeLast=0;collapsible=1;marginBottom=0;" parent="1" vertex="1">
          <mxGeometry x="880" y="108" width="350" height="130" as="geometry" />
        </mxCell>
        <mxCell id="oU2hH9bfx2fnlEqYslfO-12" value="IdQuestion = 00001" style="text;strokeColor=none;fillColor=default;align=left;verticalAlign=top;spacingLeft=4;spacingRight=4;overflow=hidden;rotatable=0;points=[[0,0.5],[1,0.5]];portConstraint=eastwest;" parent="oU2hH9bfx2fnlEqYslfO-11" vertex="1">
          <mxGeometry y="26" width="350" height="26" as="geometry" />
        </mxCell>
        <mxCell id="oU2hH9bfx2fnlEqYslfO-15" value="IdQuestionnaire = 1" style="text;strokeColor=none;fillColor=default;align=left;verticalAlign=top;spacingLeft=4;spacingRight=4;overflow=hidden;rotatable=0;points=[[0,0.5],[1,0.5]];portConstraint=eastwest;" parent="oU2hH9bfx2fnlEqYslfO-11" vertex="1">
          <mxGeometry y="52" width="350" height="26" as="geometry" />
        </mxCell>
        <mxCell id="oU2hH9bfx2fnlEqYslfO-13" value="Question = Indiquez votre couleur préférée." style="text;strokeColor=none;fillColor=default;align=left;verticalAlign=top;spacingLeft=4;spacingRight=4;overflow=hidden;rotatable=0;points=[[0,0.5],[1,0.5]];portConstraint=eastwest;" parent="oU2hH9bfx2fnlEqYslfO-11" vertex="1">
          <mxGeometry y="78" width="350" height="26" as="geometry" />
        </mxCell>
        <mxCell id="oU2hH9bfx2fnlEqYslfO-14" value="QuestionType = RadioButton" style="text;strokeColor=none;fillColor=default;align=left;verticalAlign=top;spacingLeft=4;spacingRight=4;overflow=hidden;rotatable=0;points=[[0,0.5],[1,0.5]];portConstraint=eastwest;" parent="oU2hH9bfx2fnlEqYslfO-11" vertex="1">
          <mxGeometry y="104" width="350" height="26" as="geometry" />
        </mxCell>
        <mxCell id="oU2hH9bfx2fnlEqYslfO-16" value="Questionnaire1: Questionnaire" style="swimlane;fontStyle=0;childLayout=stackLayout;horizontal=1;startSize=26;fillColor=default;horizontalStack=0;resizeParent=1;resizeParentMax=0;resizeLast=0;collapsible=1;marginBottom=0;" parent="1" vertex="1">
          <mxGeometry x="480" y="120" width="300" height="78" as="geometry" />
        </mxCell>
        <mxCell id="oU2hH9bfx2fnlEqYslfO-17" value="IdQuestionnaire = 1" style="text;strokeColor=none;fillColor=default;align=left;verticalAlign=top;spacingLeft=4;spacingRight=4;overflow=hidden;rotatable=0;points=[[0,0.5],[1,0.5]];portConstraint=eastwest;" parent="oU2hH9bfx2fnlEqYslfO-16" vertex="1">
          <mxGeometry y="26" width="300" height="26" as="geometry" />
        </mxCell>
        <mxCell id="oU2hH9bfx2fnlEqYslfO-18" value="TitreQuestionnaire =  Compétences informatique" style="text;strokeColor=none;fillColor=default;align=left;verticalAlign=top;spacingLeft=4;spacingRight=4;overflow=hidden;rotatable=0;points=[[0,0.5],[1,0.5]];portConstraint=eastwest;" parent="oU2hH9bfx2fnlEqYslfO-16" vertex="1">
          <mxGeometry y="52" width="300" height="26" as="geometry" />
        </mxCell>
        <mxCell id="oU2hH9bfx2fnlEqYslfO-59" style="edgeStyle=orthogonalEdgeStyle;rounded=0;orthogonalLoop=1;jettySize=auto;html=1;endArrow=none;endFill=0;" parent="1" source="oU2hH9bfx2fnlEqYslfO-23" target="oU2hH9bfx2fnlEqYslfO-27" edge="1">
          <mxGeometry relative="1" as="geometry" />
        </mxCell>
        <mxCell id="oU2hH9bfx2fnlEqYslfO-23" value="2b: Classe" style="swimlane;fontStyle=0;childLayout=stackLayout;horizontal=1;startSize=26;fillColor=default;horizontalStack=0;resizeParent=1;resizeParentMax=0;resizeLast=0;collapsible=1;marginBottom=0;" parent="1" vertex="1">
          <mxGeometry x="210" y="533" width="360" height="104" as="geometry" />
        </mxCell>
        <mxCell id="oU2hH9bfx2fnlEqYslfO-24" value="IdClass = 2b" style="text;strokeColor=none;fillColor=default;align=left;verticalAlign=top;spacingLeft=4;spacingRight=4;overflow=hidden;rotatable=0;points=[[0,0.5],[1,0.5]];portConstraint=eastwest;" parent="oU2hH9bfx2fnlEqYslfO-23" vertex="1">
          <mxGeometry y="26" width="360" height="26" as="geometry" />
        </mxCell>
        <mxCell id="oU2hH9bfx2fnlEqYslfO-25" value="Enseignant = Martin Degardin" style="text;strokeColor=none;fillColor=default;align=left;verticalAlign=top;spacingLeft=4;spacingRight=4;overflow=hidden;rotatable=0;points=[[0,0.5],[1,0.5]];portConstraint=eastwest;" parent="oU2hH9bfx2fnlEqYslfO-23" vertex="1">
          <mxGeometry y="52" width="360" height="26" as="geometry" />
        </mxCell>
        <mxCell id="oU2hH9bfx2fnlEqYslfO-26" value="ListeEleve = Charles Dupont, Noémie Forster etc." style="text;strokeColor=none;fillColor=default;align=left;verticalAlign=top;spacingLeft=4;spacingRight=4;overflow=hidden;rotatable=0;points=[[0,0.5],[1,0.5]];portConstraint=eastwest;" parent="oU2hH9bfx2fnlEqYslfO-23" vertex="1">
          <mxGeometry y="78" width="360" height="26" as="geometry" />
        </mxCell>
        <mxCell id="oU2hH9bfx2fnlEqYslfO-27" value="Martin Degardin: Enseignant" style="swimlane;fontStyle=0;childLayout=stackLayout;horizontal=1;startSize=26;fillColor=none;horizontalStack=0;resizeParent=1;resizeParentMax=0;resizeLast=0;collapsible=1;marginBottom=0;" parent="1" vertex="1">
          <mxGeometry x="700" y="455" width="300" height="260" as="geometry" />
        </mxCell>
        <mxCell id="oU2hH9bfx2fnlEqYslfO-31" value="IdUtilisateur = 123004" style="text;strokeColor=none;fillColor=none;align=left;verticalAlign=top;spacingLeft=4;spacingRight=4;overflow=hidden;rotatable=0;points=[[0,0.5],[1,0.5]];portConstraint=eastwest;" parent="oU2hH9bfx2fnlEqYslfO-27" vertex="1">
          <mxGeometry y="26" width="300" height="26" as="geometry" />
        </mxCell>
        <mxCell id="oU2hH9bfx2fnlEqYslfO-32" value="NoAVS = 123456789102" style="text;strokeColor=none;fillColor=none;align=left;verticalAlign=top;spacingLeft=4;spacingRight=4;overflow=hidden;rotatable=0;points=[[0,0.5],[1,0.5]];portConstraint=eastwest;" parent="oU2hH9bfx2fnlEqYslfO-27" vertex="1">
          <mxGeometry y="52" width="300" height="26" as="geometry" />
        </mxCell>
        <mxCell id="oU2hH9bfx2fnlEqYslfO-33" value="Nom = Degardin" style="text;strokeColor=none;fillColor=none;align=left;verticalAlign=top;spacingLeft=4;spacingRight=4;overflow=hidden;rotatable=0;points=[[0,0.5],[1,0.5]];portConstraint=eastwest;" parent="oU2hH9bfx2fnlEqYslfO-27" vertex="1">
          <mxGeometry y="78" width="300" height="26" as="geometry" />
        </mxCell>
        <mxCell id="oU2hH9bfx2fnlEqYslfO-34" value="Prenom = Martin" style="text;strokeColor=none;fillColor=none;align=left;verticalAlign=top;spacingLeft=4;spacingRight=4;overflow=hidden;rotatable=0;points=[[0,0.5],[1,0.5]];portConstraint=eastwest;" parent="oU2hH9bfx2fnlEqYslfO-27" vertex="1">
          <mxGeometry y="104" width="300" height="26" as="geometry" />
        </mxCell>
        <mxCell id="oU2hH9bfx2fnlEqYslfO-48" value="email = m.degardin@gmail.com" style="text;strokeColor=none;fillColor=none;align=left;verticalAlign=top;spacingLeft=4;spacingRight=4;overflow=hidden;rotatable=0;points=[[0,0.5],[1,0.5]];portConstraint=eastwest;" parent="oU2hH9bfx2fnlEqYslfO-27" vertex="1">
          <mxGeometry y="130" width="300" height="26" as="geometry" />
        </mxCell>
        <mxCell id="oU2hH9bfx2fnlEqYslfO-35" value="Fonction = Enseignant" style="text;strokeColor=none;fillColor=none;align=left;verticalAlign=top;spacingLeft=4;spacingRight=4;overflow=hidden;rotatable=0;points=[[0,0.5],[1,0.5]];portConstraint=eastwest;" parent="oU2hH9bfx2fnlEqYslfO-27" vertex="1">
          <mxGeometry y="156" width="300" height="26" as="geometry" />
        </mxCell>
        <mxCell id="oU2hH9bfx2fnlEqYslfO-36" value="DtNaissance = 12.03.1979" style="text;strokeColor=none;fillColor=none;align=left;verticalAlign=top;spacingLeft=4;spacingRight=4;overflow=hidden;rotatable=0;points=[[0,0.5],[1,0.5]];portConstraint=eastwest;" parent="oU2hH9bfx2fnlEqYslfO-27" vertex="1">
          <mxGeometry y="182" width="300" height="26" as="geometry" />
        </mxCell>
        <mxCell id="oU2hH9bfx2fnlEqYslfO-37" value="Password = ********" style="text;strokeColor=none;fillColor=none;align=left;verticalAlign=top;spacingLeft=4;spacingRight=4;overflow=hidden;rotatable=0;points=[[0,0.5],[1,0.5]];portConstraint=eastwest;" parent="oU2hH9bfx2fnlEqYslfO-27" vertex="1">
          <mxGeometry y="208" width="300" height="26" as="geometry" />
        </mxCell>
        <mxCell id="oU2hH9bfx2fnlEqYslfO-28" value="ListeClasse: 2b, 3a" style="text;strokeColor=none;fillColor=none;align=left;verticalAlign=top;spacingLeft=4;spacingRight=4;overflow=hidden;rotatable=0;points=[[0,0.5],[1,0.5]];portConstraint=eastwest;" parent="oU2hH9bfx2fnlEqYslfO-27" vertex="1">
          <mxGeometry y="234" width="300" height="26" as="geometry" />
        </mxCell>
        <mxCell id="oU2hH9bfx2fnlEqYslfO-38" value="Catherine Bonnemine: Direction" style="swimlane;fontStyle=0;childLayout=stackLayout;horizontal=1;startSize=26;fillColor=none;horizontalStack=0;resizeParent=1;resizeParentMax=0;resizeLast=0;collapsible=1;marginBottom=0;" parent="1" vertex="1">
          <mxGeometry x="1040" y="455" width="250" height="234" as="geometry" />
        </mxCell>
        <mxCell id="oU2hH9bfx2fnlEqYslfO-39" value="IdUtilisateur = 123001" style="text;strokeColor=none;fillColor=none;align=left;verticalAlign=top;spacingLeft=4;spacingRight=4;overflow=hidden;rotatable=0;points=[[0,0.5],[1,0.5]];portConstraint=eastwest;" parent="oU2hH9bfx2fnlEqYslfO-38" vertex="1">
          <mxGeometry y="26" width="250" height="26" as="geometry" />
        </mxCell>
        <mxCell id="oU2hH9bfx2fnlEqYslfO-40" value="NoAVS = 123456789108" style="text;strokeColor=none;fillColor=none;align=left;verticalAlign=top;spacingLeft=4;spacingRight=4;overflow=hidden;rotatable=0;points=[[0,0.5],[1,0.5]];portConstraint=eastwest;" parent="oU2hH9bfx2fnlEqYslfO-38" vertex="1">
          <mxGeometry y="52" width="250" height="26" as="geometry" />
        </mxCell>
        <mxCell id="oU2hH9bfx2fnlEqYslfO-41" value="Nom = Bonaparte" style="text;strokeColor=none;fillColor=none;align=left;verticalAlign=top;spacingLeft=4;spacingRight=4;overflow=hidden;rotatable=0;points=[[0,0.5],[1,0.5]];portConstraint=eastwest;" parent="oU2hH9bfx2fnlEqYslfO-38" vertex="1">
          <mxGeometry y="78" width="250" height="26" as="geometry" />
        </mxCell>
        <mxCell id="oU2hH9bfx2fnlEqYslfO-46" value="Prenom = Catherine" style="text;strokeColor=none;fillColor=none;align=left;verticalAlign=top;spacingLeft=4;spacingRight=4;overflow=hidden;rotatable=0;points=[[0,0.5],[1,0.5]];portConstraint=eastwest;" parent="oU2hH9bfx2fnlEqYslfO-38" vertex="1">
          <mxGeometry y="104" width="250" height="26" as="geometry" />
        </mxCell>
        <mxCell id="oU2hH9bfx2fnlEqYslfO-47" value="email = c.bonnemine@gmail.com" style="text;strokeColor=none;fillColor=none;align=left;verticalAlign=top;spacingLeft=4;spacingRight=4;overflow=hidden;rotatable=0;points=[[0,0.5],[1,0.5]];portConstraint=eastwest;" parent="oU2hH9bfx2fnlEqYslfO-38" vertex="1">
          <mxGeometry y="130" width="250" height="26" as="geometry" />
        </mxCell>
        <mxCell id="oU2hH9bfx2fnlEqYslfO-45" value="Fonction = Direction" style="text;strokeColor=none;fillColor=none;align=left;verticalAlign=top;spacingLeft=4;spacingRight=4;overflow=hidden;rotatable=0;points=[[0,0.5],[1,0.5]];portConstraint=eastwest;" parent="oU2hH9bfx2fnlEqYslfO-38" vertex="1">
          <mxGeometry y="156" width="250" height="26" as="geometry" />
        </mxCell>
        <mxCell id="oU2hH9bfx2fnlEqYslfO-44" value="DtNaissance = 14.08.1988" style="text;strokeColor=none;fillColor=none;align=left;verticalAlign=top;spacingLeft=4;spacingRight=4;overflow=hidden;rotatable=0;points=[[0,0.5],[1,0.5]];portConstraint=eastwest;" parent="oU2hH9bfx2fnlEqYslfO-38" vertex="1">
          <mxGeometry y="182" width="250" height="26" as="geometry" />
        </mxCell>
        <mxCell id="oU2hH9bfx2fnlEqYslfO-43" value="Password = **************" style="text;strokeColor=none;fillColor=none;align=left;verticalAlign=top;spacingLeft=4;spacingRight=4;overflow=hidden;rotatable=0;points=[[0,0.5],[1,0.5]];portConstraint=eastwest;" parent="oU2hH9bfx2fnlEqYslfO-38" vertex="1">
          <mxGeometry y="208" width="250" height="26" as="geometry" />
        </mxCell>
        <mxCell id="93Pf0BwEEPynUzrRqr7O-7" style="rounded=0;orthogonalLoop=1;jettySize=auto;html=1;endArrow=none;endFill=0;" parent="1" source="oU2hH9bfx2fnlEqYslfO-50" target="oU2hH9bfx2fnlEqYslfO-16" edge="1">
          <mxGeometry relative="1" as="geometry" />
        </mxCell>
        <mxCell id="oU2hH9bfx2fnlEqYslfO-50" value="CDTReponses: EleveReponse" style="swimlane;fontStyle=0;childLayout=stackLayout;horizontal=1;startSize=26;fillColor=default;horizontalStack=0;resizeParent=1;resizeParentMax=0;resizeLast=0;collapsible=1;marginBottom=0;gradientColor=none;" parent="1" vertex="1">
          <mxGeometry x="516" y="279" width="220" height="104" as="geometry" />
        </mxCell>
        <mxCell id="C2F_x1-aIkEo4wXPpq_A-1" value="IdUtilisateur = 123456" style="text;strokeColor=none;fillColor=default;align=left;verticalAlign=top;spacingLeft=4;spacingRight=4;overflow=hidden;rotatable=0;points=[[0,0.5],[1,0.5]];portConstraint=eastwest;" parent="oU2hH9bfx2fnlEqYslfO-50" vertex="1">
          <mxGeometry y="26" width="220" height="26" as="geometry" />
        </mxCell>
        <mxCell id="oU2hH9bfx2fnlEqYslfO-51" value="IdEleveReponse = 123" style="text;strokeColor=none;fillColor=default;align=left;verticalAlign=top;spacingLeft=4;spacingRight=4;overflow=hidden;rotatable=0;points=[[0,0.5],[1,0.5]];portConstraint=eastwest;" parent="oU2hH9bfx2fnlEqYslfO-50" vertex="1">
          <mxGeometry y="52" width="220" height="26" as="geometry" />
        </mxCell>
        <mxCell id="oU2hH9bfx2fnlEqYslfO-54" value="IdQuestionnaire = 1" style="text;strokeColor=none;fillColor=default;align=left;verticalAlign=top;spacingLeft=4;spacingRight=4;overflow=hidden;rotatable=0;points=[[0,0.5],[1,0.5]];portConstraint=eastwest;" parent="oU2hH9bfx2fnlEqYslfO-50" vertex="1">
          <mxGeometry y="78" width="220" height="26" as="geometry" />
        </mxCell>
        <mxCell id="oU2hH9bfx2fnlEqYslfO-56" value="" style="endArrow=diamondThin;endFill=1;endSize=24;html=1;rounded=0;" parent="1" target="oU2hH9bfx2fnlEqYslfO-16" edge="1">
          <mxGeometry width="160" relative="1" as="geometry">
            <mxPoint x="880" y="160" as="sourcePoint" />
            <mxPoint x="750" y="360" as="targetPoint" />
          </mxGeometry>
        </mxCell>
        <mxCell id="93Pf0BwEEPynUzrRqr7O-8" value="" style="swimlane;fontStyle=0;childLayout=stackLayout;horizontal=1;startSize=26;fillColor=none;horizontalStack=0;resizeParent=1;resizeParentMax=0;resizeLast=0;collapsible=1;marginBottom=0;" parent="1" vertex="1">
          <mxGeometry x="874" y="270" width="346" height="104" as="geometry" />
        </mxCell>
        <mxCell id="93Pf0BwEEPynUzrRqr7O-9" value=" " style="text;strokeColor=none;fillColor=none;align=left;verticalAlign=top;spacingLeft=4;spacingRight=4;overflow=hidden;rotatable=0;points=[[0,0.5],[1,0.5]];portConstraint=eastwest;" parent="93Pf0BwEEPynUzrRqr7O-8" vertex="1">
          <mxGeometry y="26" width="346" height="26" as="geometry" />
        </mxCell>
        <mxCell id="93Pf0BwEEPynUzrRqr7O-10" style="text;strokeColor=none;fillColor=none;align=left;verticalAlign=top;spacingLeft=4;spacingRight=4;overflow=hidden;rotatable=0;points=[[0,0.5],[1,0.5]];portConstraint=eastwest;" parent="93Pf0BwEEPynUzrRqr7O-8" vertex="1">
          <mxGeometry y="52" width="346" height="26" as="geometry" />
        </mxCell>
        <mxCell id="93Pf0BwEEPynUzrRqr7O-11" style="text;strokeColor=none;fillColor=none;align=left;verticalAlign=top;spacingLeft=4;spacingRight=4;overflow=hidden;rotatable=0;points=[[0,0.5],[1,0.5]];portConstraint=eastwest;" parent="93Pf0BwEEPynUzrRqr7O-8" vertex="1">
          <mxGeometry y="78" width="346" height="26" as="geometry" />
        </mxCell>
        <mxCell id="93Pf0BwEEPynUzrRqr7O-19" style="edgeStyle=none;rounded=0;orthogonalLoop=1;jettySize=auto;html=1;entryX=0.5;entryY=1;entryDx=0;entryDy=0;endArrow=none;endFill=0;" parent="1" source="93Pf0BwEEPynUzrRqr7O-13" target="oU2hH9bfx2fnlEqYslfO-11" edge="1">
          <mxGeometry relative="1" as="geometry" />
        </mxCell>
        <mxCell id="93Pf0BwEEPynUzrRqr7O-13" value="R1: Reponse" style="swimlane;fontStyle=0;childLayout=stackLayout;horizontal=1;startSize=26;fillColor=default;horizontalStack=0;resizeParent=1;resizeParentMax=0;resizeLast=0;collapsible=1;marginBottom=0;" parent="1" vertex="1">
          <mxGeometry x="880" y="275" width="350" height="104" as="geometry" />
        </mxCell>
        <mxCell id="93Pf0BwEEPynUzrRqr7O-14" value="IdQuestion = 00001" style="text;strokeColor=none;fillColor=default;align=left;verticalAlign=top;spacingLeft=4;spacingRight=4;overflow=hidden;rotatable=0;points=[[0,0.5],[1,0.5]];portConstraint=eastwest;" parent="93Pf0BwEEPynUzrRqr7O-13" vertex="1">
          <mxGeometry y="26" width="350" height="26" as="geometry" />
        </mxCell>
        <mxCell id="93Pf0BwEEPynUzrRqr7O-15" value="IdEleveReponse = 123" style="text;strokeColor=none;fillColor=default;align=left;verticalAlign=top;spacingLeft=4;spacingRight=4;overflow=hidden;rotatable=0;points=[[0,0.5],[1,0.5]];portConstraint=eastwest;" parent="93Pf0BwEEPynUzrRqr7O-13" vertex="1">
          <mxGeometry y="52" width="350" height="26" as="geometry" />
        </mxCell>
        <mxCell id="93Pf0BwEEPynUzrRqr7O-17" value="Reponse = Rouge" style="text;strokeColor=none;fillColor=default;align=left;verticalAlign=top;spacingLeft=4;spacingRight=4;overflow=hidden;rotatable=0;points=[[0,0.5],[1,0.5]];portConstraint=eastwest;" parent="93Pf0BwEEPynUzrRqr7O-13" vertex="1">
          <mxGeometry y="78" width="350" height="26" as="geometry" />
        </mxCell>
        <mxCell id="93Pf0BwEEPynUzrRqr7O-20" value="" style="endArrow=diamondThin;endFill=1;endSize=24;html=1;rounded=0;" parent="1" source="93Pf0BwEEPynUzrRqr7O-13" edge="1">
          <mxGeometry width="160" relative="1" as="geometry">
            <mxPoint x="836" y="323.64529411764704" as="sourcePoint" />
            <mxPoint x="736" y="320.35117647058826" as="targetPoint" />
          </mxGeometry>
        </mxCell>
        <mxCell id="8bRElP832ibMd5jmSutM-1" value="" style="endArrow=diamondThin;endFill=1;endSize=24;html=1;rounded=0;exitX=0;exitY=0.5;exitDx=0;exitDy=0;entryX=1;entryY=0.154;entryDx=0;entryDy=0;entryPerimeter=0;" edge="1" parent="1" source="oU2hH9bfx2fnlEqYslfO-63" target="oU2hH9bfx2fnlEqYslfO-9">
          <mxGeometry width="160" relative="1" as="geometry">
            <mxPoint x="600" y="280" as="sourcePoint" />
            <mxPoint x="420" y="296" as="targetPoint" />
          </mxGeometry>
        </mxCell>
      </root>
    </mxGraphModel>
  </diagram>
</mxfile>
